<svg xmlns="http://www.w3.org/2000/svg" width="140" height="125" viewBox="0 0 140 125" fill="none">
  <path
    d="M86.8415 49.7857H87.6066L87.2994 49.0849C86.943 48.2721 86.7451 47.374 86.7451 46.4286V35.7143C86.7451 31.4916 83.3107 28.0714 79.0777 28.0714H68.3268C64.6429 28.0714 61.6594 25.0957 61.6594 21.4286V7.14286C61.6594 3.47572 64.6429 0.5 68.3268 0.5H82.6614C86.3453 0.5 89.3287 3.47572 89.3287 7.14286V17.8571C89.3287 22.0798 92.7631 25.5 96.9961 25.5H107.747C111.431 25.5 114.414 28.4757 114.414 32.1429V42.8571C114.414 45.884 116.179 48.498 118.736 49.7357L118.839 49.7857H118.954H131.758C134.356 49.7857 136.655 51.0603 138.06 53.0176L138.066 53.0271L138.074 53.0361C138.967 54.1666 139.5 55.5921 139.5 57.1429V71.4286C139.5 75.0957 136.517 78.0714 132.833 78.0714H118.498C114.265 78.0714 110.831 81.4916 110.831 85.7143V92.8571C110.831 96.5243 107.847 99.5 104.163 99.5H93.4124C89.1795 99.5 85.7451 102.92 85.7451 107.143V117.857C85.7451 121.524 82.7616 124.5 79.0777 124.5H64.7431C61.0592 124.5 58.0758 121.524 58.0758 117.857V103.571C58.0758 99.9043 61.0592 96.9286 64.7431 96.9286H75.4941C79.727 96.9286 83.1614 93.5084 83.1614 89.2857V78.5714C83.1614 76.9231 83.7634 75.4159 84.7611 74.2544L85.4705 73.4286H84.3819H8.24242C3.96479 73.4286 0.5 69.9731 0.5 65.7143V57.5C0.5 53.2411 3.96479 49.7857 8.24242 49.7857H86.8415Z"
    stroke="#9E9E9E"
  />
</svg>