<svg xmlns="http://www.w3.org/2000/svg" version="1.2" viewBox="0 0 23 23" width="23" height="23">
    <style>.a{fill:#0e0e0e}</style>
    <path class="a" d="m10.6 4c-0.5 0-0.9 0.4-0.9 0.9v1.7c0 0.5 0.4 0.9 0.9 0.9h1.3c0.5 0 0.8 0.4 0.8 0.8v1.4q0 0.1 0.1 0.3h-7.5c-0.6 0-1 0.4-1 1v1c0 0.6 0.4 1 1 1h7.2q-0.2 0.2-0.2 0.6v1.3c0 0.4-0.4 0.8-0.9 0.8h-1.3c-0.4 0-0.8 0.4-0.8 0.9v1.7c0 0.5 0.4 0.9 0.8 0.9h1.8c0.5 0 0.8-0.4 0.8-0.9v-1.3c0-0.4 0.4-0.8 0.9-0.8h1.3c0.5 0 0.9-0.4 0.9-0.9v-0.9c0-0.4 0.4-0.8 0.9-0.8h1.7c0.5 0 0.9-0.4 0.9-0.9v-1.7q0-0.4-0.2-0.6c-0.2-0.2-0.5-0.4-0.8-0.4h-1.6c-0.3-0.1-0.5-0.4-0.5-0.8v-1.3c0-0.5-0.4-0.9-0.9-0.9h-1.3c-0.4 0-0.8-0.3-0.8-0.8v-1.3c0-0.5-0.4-0.9-0.9-0.9z"/>
</svg>