<svg xmlns="http://www.w3.org/2000/svg" width="24" height="24" viewBox="0 0 24 24" fill="none">
  <path
    d="M5 5.5C5 5.22386 5.22386 5 5.5 5H6.5C6.77614 5 7 5.22386 7 5.5V7H5.5C5.22386 7 5 6.77614 5 6.5V5.5ZM9 9H7.5C7.22386 9 7 8.77614 7 8.5V7H8.5C8.77614 7 9 7.22386 9 7.5V9ZM11 11H9.5C9.22386 11 9 10.7761 9 10.5V9H10.5C10.7761 9 11 9.22386 11 9.5V11ZM13 11H11V13H9.5C9.22386 13 9 13.2239 9 13.5V15H7.5C7.22386 15 7 15.2239 7 15.5V17H5.5C5.22386 17 5 17.2239 5 17.5V18.5C5 18.7761 5.22386 19 5.5 19H6.5C6.77614 19 7 18.7761 7 18.5V17H8.5C8.77614 17 9 16.7761 9 16.5V15H10.5C10.7761 15 11 14.7761 11 14.5V13H13V14.5C13 14.7761 13.2239 15 13.5 15H15V16.5C15 16.7761 15.2239 17 15.5 17H17V18.5C17 18.7761 17.2239 19 17.5 19H18.5C18.7761 19 19 18.7761 19 18.5V17.5C19 17.2239 18.7761 17 18.5 17H17V15.5C17 15.2239 16.7761 15 16.5 15H15V13.5C15 13.2239 14.7761 13 14.5 13H13V11ZM15 9V10.5C15 10.7761 14.7761 11 14.5 11H13V9.5C13 9.22386 13.2239 9 13.5 9H15ZM17 7V8.5C17 8.77614 16.7761 9 16.5 9H15V7.5C15 7.22386 15.2239 7 15.5 7H17ZM17 7V5.5C17 5.22386 17.2239 5 17.5 5H18.5C18.7761 5 19 5.22386 19 5.5V6.5C19 6.77614 18.7761 7 18.5 7H17Z"
    fill="#0E0E0E" />
</svg>