<svg xmlns="http://www.w3.org/2000/svg" width="10" height="10" viewBox="0 0 10 10" fill="none">
    <path d="M0.198869 1.16424C-0.0662899 1.42925 -0.0662898 1.8589 0.198869 2.12391L1.1591 3.08358C1.42425 3.34858 1.85416 3.34858 2.11932 3.08358L2.83949 2.36383C3.10465 2.09882 3.53456 2.09882 3.79972 2.36383L4.51989 3.08358C4.58817 3.15182 4.66738 3.20249 4.75188 3.23558L0.58296 7.40208C0.278027 7.70683 0.278027 8.20094 0.58296 8.5057L1.13509 9.0575C1.44002 9.36226 1.93442 9.36226 2.23935 9.0575L6.24351 5.05567C6.25559 5.21136 6.3212 5.36367 6.44034 5.48274L7.16051 6.2025C7.42567 6.4675 7.42567 6.89716 7.16051 7.16216L6.44034 7.88191C6.17518 8.14692 6.17518 8.57657 6.44034 8.84158L7.40057 9.80125C7.66573 10.0663 8.09563 10.0663 8.36079 9.80125L9.32102 8.84158C9.58618 8.57657 9.58618 8.14692 9.32102 7.88191L8.60085 7.16216C8.33569 6.89716 8.33569 6.4675 8.60085 6.20249L9.32102 5.48274C9.58618 5.21774 9.58618 4.78808 9.32102 4.52308L8.8409 4.04324C8.57575 3.77824 8.57575 3.34858 8.8409 3.08358L9.80113 2.12391C10.0663 1.8589 10.0663 1.42925 9.80113 1.16424L8.8409 0.204575C8.72883 0.0925653 8.58732 0.0278982 8.44126 0.0105755C8.20111 -0.0292516 7.94591 0.0434122 7.76065 0.228567L6.90297 1.08575C6.66498 1.16806 6.39032 1.11425 6.20028 0.924326L5.48011 0.204575C5.21495 -0.0604294 4.78505 -0.0604289 4.51989 0.204576L3.79972 0.924326C3.53456 1.18933 3.10465 1.18933 2.83949 0.924326L2.11932 0.204576C1.85416 -0.0604289 1.42425 -0.060429 1.1591 0.204576L0.198869 1.16424Z" fill="#636363"/>
</svg>