<svg xmlns="http://www.w3.org/2000/svg" width="44" height="44" viewBox="0 0 44 44" fill="none">
    <rect x="0.5" y="0.5" width="43" height="43" stroke="#9E9E9E"/>
    <path d="M22.0003 25.9286C24.1699 25.9286 25.9288 24.1697 25.9288 22C25.9288 19.8303 24.1699 18.0714 22.0003 18.0714C19.8306 18.0714 18.0717 19.8303 18.0717 22C18.0717 24.1697 19.8306 25.9286 22.0003 25.9286Z" fill="#9E9E9E"/>
    <path fill-rule="evenodd" clip-rule="evenodd" d="M22 11C15.9249 11 11 15.9249 11 22C11 28.0751 15.9249 33 22 33C28.0751 33 33 28.0751 33 22C33 15.9249 28.0751 11 22 11ZM12.0476 22C12.0476 16.5035 16.5035 12.0476 22 12.0476C27.4965 12.0476 31.9524 16.5035 31.9524 22C31.9524 27.4965 27.4965 31.9524 22 31.9524C16.5035 31.9524 12.0476 27.4965 12.0476 22Z" fill="#9E9E9E"/>
</svg>