<svg xmlns="http://www.w3.org/2000/svg" width="69" height="84" viewBox="0 0 69 84" fill="none">
    <mask id="path-1-inside-1_1509_1437" fill="white">
        <path d="M5 84C0.68 84 0.2 83.52 0.2 79.2V74.4C0.2 70.08 0.68 69.6 5 69.6H23C27.32 69.6 27.8 69.12 27.8 64.8V19.2C27.8 14.88 27.32 14.4 23 14.4H5C0.68 14.4 0.2 13.92 0.2 9.6V4.8C0.2 0.479995 0.68 -5.72205e-06 5 -5.72205e-06H33.8C40.04 -5.72205e-06 43.4 3.35999 43.4 9.6V64.8C43.4 69.12 43.88 69.6 48.2 69.6H63.8C68.12 69.6 68.6 70.08 68.6 74.4V79.2C68.6 83.52 68.12 84 63.8 84H5Z"/>
    </mask>
    <path d="M5 83C3.9208 83 3.15719 82.9686 2.59741 82.872C2.04553 82.7769 1.81145 82.6372 1.68711 82.5129C1.56276 82.3885 1.42311 82.1545 1.32796 81.6026C1.23145 81.0428 1.2 80.2792 1.2 79.2H-0.8C-0.8 80.2808 -0.771446 81.1972 -0.64296 81.9424C-0.513111 82.6955 -0.262763 83.3914 0.272893 83.9271C0.808549 84.4628 1.50447 84.7131 2.25759 84.843C3.00281 84.9714 3.9192 85 5 85V83ZM1.2 79.2V74.4H-0.8V79.2H1.2ZM1.2 74.4C1.2 73.3208 1.23145 72.5572 1.32796 71.9974C1.42311 71.4455 1.56276 71.2114 1.68711 71.0871C1.81145 70.9628 2.04553 70.8231 2.59741 70.728C3.15719 70.6314 3.9208 70.6 5 70.6V68.6C3.9192 68.6 3.00281 68.6286 2.25759 68.757C1.50447 68.8869 0.808549 69.1372 0.272893 69.6729C-0.262763 70.2085 -0.513111 70.9045 -0.64296 71.6576C-0.771446 72.4028 -0.8 73.3192 -0.8 74.4H1.2ZM5 70.6H23V68.6H5V70.6ZM23 70.6C24.0808 70.6 24.9972 70.5714 25.7424 70.443C26.4955 70.3131 27.1915 70.0628 27.7271 69.5271C28.2628 68.9914 28.5131 68.2955 28.643 67.5424C28.7715 66.7972 28.8 65.8808 28.8 64.8H26.8C26.8 65.8792 26.7686 66.6428 26.672 67.2026C26.5769 67.7545 26.4372 67.9885 26.3129 68.1129C26.1886 68.2372 25.9545 68.3769 25.4026 68.472C24.8428 68.5686 24.0792 68.6 23 68.6V70.6ZM28.8 64.8V19.2H26.8V64.8H28.8ZM28.8 19.2C28.8 18.1192 28.7715 17.2028 28.643 16.4576C28.5131 15.7045 28.2628 15.0085 27.7271 14.4729C27.1915 13.9372 26.4955 13.6869 25.7424 13.557C24.9972 13.4285 24.0808 13.4 23 13.4V15.4C24.0792 15.4 24.8428 15.4314 25.4026 15.528C25.9545 15.6231 26.1885 15.7628 26.3129 15.8871C26.4372 16.0114 26.5769 16.2455 26.672 16.7974C26.7686 17.3572 26.8 18.1208 26.8 19.2H28.8ZM23 13.4H5V15.4H23V13.4ZM5 13.4C3.9208 13.4 3.15719 13.3685 2.59741 13.272C2.04553 13.1769 1.81145 13.0372 1.68711 12.9129C1.56276 12.7885 1.42311 12.5545 1.32796 12.0026C1.23145 11.4428 1.2 10.6792 1.2 9.6H-0.8C-0.8 10.6808 -0.771446 11.5972 -0.64296 12.3424C-0.513111 13.0955 -0.262762 13.7914 0.272894 14.3271C0.80855 14.8628 1.50447 15.1131 2.25759 15.243C3.00281 15.3714 3.9192 15.4 5 15.4V13.4ZM1.2 9.6V4.8H-0.8V9.6H1.2ZM1.2 4.8C1.2 3.7208 1.23145 2.95718 1.32796 2.3974C1.42311 1.84553 1.56276 1.61145 1.68711 1.4871C1.81145 1.36276 2.04553 1.2231 2.59741 1.12795C3.15719 1.03144 3.9208 0.999994 5 0.999994V-1.00001C3.9192 -1.00001 3.00281 -0.971452 2.25759 -0.842966C1.50447 -0.713117 0.808549 -0.462768 0.272893 0.0728893C-0.262763 0.608545 -0.513111 1.30446 -0.64296 2.05759C-0.771446 2.80281 -0.8 3.71919 -0.8 4.8H1.2ZM5 0.999994H33.8V-1.00001H5V0.999994ZM33.8 0.999994C36.7471 0.999994 38.8569 1.79111 40.2329 3.1671C41.6089 4.54309 42.4 6.65295 42.4 9.6H44.4C44.4 6.30705 43.5111 3.6169 41.6471 1.75289C39.7831 -0.111121 37.093 -1.00001 33.8 -1.00001V0.999994ZM42.4 9.6V64.8H44.4V9.6H42.4ZM42.4 64.8C42.4 65.8808 42.4286 66.7972 42.557 67.5424C42.6869 68.2955 42.9372 68.9914 43.4729 69.5271C44.0086 70.0628 44.7045 70.3131 45.4576 70.443C46.2028 70.5714 47.1192 70.6 48.2 70.6V68.6C47.1208 68.6 46.3572 68.5686 45.7974 68.472C45.2455 68.3769 45.0115 68.2372 44.8871 68.1129C44.7628 67.9885 44.6231 67.7545 44.528 67.2026C44.4314 66.6428 44.4 65.8792 44.4 64.8H42.4ZM48.2 70.6H63.8V68.6H48.2V70.6ZM63.8 70.6C64.8792 70.6 65.6428 70.6314 66.2026 70.728C66.7545 70.8231 66.9886 70.9628 67.1129 71.0871C67.2372 71.2114 67.3769 71.4455 67.472 71.9974C67.5686 72.5572 67.6 73.3208 67.6 74.4H69.6C69.6 73.3192 69.5714 72.4028 69.443 71.6576C69.3131 70.9045 69.0628 70.2085 68.5271 69.6729C67.9915 69.1372 67.2955 68.8869 66.5424 68.757C65.7972 68.6286 64.8808 68.6 63.8 68.6V70.6ZM67.6 74.4V79.2H69.6V74.4H67.6ZM67.6 79.2C67.6 80.2792 67.5686 81.0428 67.472 81.6026C67.3769 82.1545 67.2372 82.3885 67.1129 82.5129C66.9886 82.6372 66.7545 82.7769 66.2026 82.872C65.6428 82.9686 64.8792 83 63.8 83V85C64.8808 85 65.7972 84.9714 66.5424 84.843C67.2955 84.7131 67.9915 84.4628 68.5271 83.9271C69.0628 83.3914 69.3131 82.6955 69.443 81.9424C69.5714 81.1972 69.6 80.2808 69.6 79.2H67.6ZM63.8 83H5V85H63.8V83Z" fill="#636363" mask="url(#path-1-inside-1_1509_1437)"/>
</svg>