<svg xmlns="http://www.w3.org/2000/svg" width="20" height="20" viewBox="0 0 20 20" fill="none">
  <path
    d="M5.00033 2.1665C5.00033 1.89036 5.22418 1.6665 5.50033 1.6665H11.167C11.4431 1.6665 11.667 1.89036 11.667 2.1665V3.33317H5.00033V2.1665ZM3.33366 4.99984V3.83317C3.33366 3.55703 3.55752 3.33317 3.83366 3.33317H5.00033V4.49984C5.00033 4.77598 4.77647 4.99984 4.50033 4.99984H3.33366ZM3.33366 11.6665H2.16699C1.89085 11.6665 1.66699 11.4426 1.66699 11.1665V5.49984C1.66699 5.22369 1.89085 4.99984 2.16699 4.99984H3.33366V11.6665ZM5.00033 13.3332H3.83366C3.55752 13.3332 3.33366 13.1093 3.33366 12.8332V11.6665H4.50033C4.77647 11.6665 5.00033 11.8904 5.00033 12.1665V13.3332ZM11.667 13.3332V14.4998C11.667 14.776 11.4431 14.9998 11.167 14.9998H5.50032C5.22418 14.9998 5.00033 14.776 5.00033 14.4998V13.3332H11.667ZM13.3337 11.6665H12.167C11.8908 11.6665 11.667 11.8904 11.667 12.1665V13.3332H13.3337V14.4998C13.3337 14.776 13.5575 14.9998 13.8337 14.9998H15.0003V16.1665C15.0003 16.4426 15.2242 16.6665 15.5003 16.6665H16.667V17.8332C16.667 18.1093 16.8908 18.3332 17.167 18.3332H17.8337C18.1098 18.3332 18.3337 18.1093 18.3337 17.8332V17.1665C18.3337 16.8904 18.1098 16.6665 17.8337 16.6665H16.667V15.4998C16.667 15.2237 16.4431 14.9998 16.167 14.9998H15.0003V13.8332C15.0003 13.557 14.7765 13.3332 14.5003 13.3332H13.3337V11.6665ZM13.3337 4.99984H14.5003C14.7765 4.99984 15.0003 5.22369 15.0003 5.49984V11.1665C15.0003 11.4426 14.7765 11.6665 14.5003 11.6665H13.3337V4.99984ZM13.3337 4.99984V3.83317C13.3337 3.55703 13.1098 3.33317 12.8337 3.33317H11.667V4.49984C11.667 4.77598 11.8908 4.99984 12.167 4.99984H13.3337Z"
    fill="#0E0E0E" />
</svg>